# xmcd CD database file
#
# Track frame offsets:
#	150
#	3356
#	20392
#	38361
#	59687
#	85536
#	109942
#	126172
#	138726
#	159757
#	180198
#	196018
#	210186
#	230764
#	250928
#	267477
#
# Disc length: 3989 seconds
#
# Revision: 0
# Processed by: cddbd v1.5.2PL0 Copyright (c) Steve Scherf et al.
# Submitted via: CDex 1.51
#
DISCID=c60f9310
DTITLE=MARC ALMOND - Varieté
DYEAR=2010
DGENRE=Jazz
TTITLE0=Intro
TTITLE1=Bread and Circus
TTITLE2=Nijinsky Heart
TTITLE3=The Exhibitionist
TTITLE4=The Trials of Eyeliner
TTITLE5=Lavender
TTITLE6=Soho So Long
TTITLE7=Unloveable
TTITLE8=Sandboy
TTITLE9=It's All Going On
TTITLE10=Variety
TTITLE11=Cabaret Clown
TTITLE12=My Madness and I
TTITLE13=But Not Today
TTITLE14=Swan Song
TTITLE15=Sin Song
EXTD=YEAR: 2010
EXTT0=
EXTT1=
EXTT2=
EXTT3=
EXTT4=
EXTT5=
EXTT6=
EXTT7=
EXTT8=
EXTT9=
EXTT10=
EXTT11=
EXTT12=
EXTT13=
EXTT14=
EXTT15=
PLAYORDER=
